<svg width="21" height="19" viewBox="0 0 21 19" fill="none" xmlns="http://www.w3.org/2000/svg">
<path d="M20.3164 4.227C19.9357 3.76495 19.345 3.48529 18.7347 3.48728L5.91158 3.52901L5.50699 2.0406C5.27221 1.17537 4.47076 0.573896 3.54376 0.576916L1.39618 0.583906C1.03839 0.585066 0.744003 0.867606 0.74512 1.21056C0.746233 1.5527 1.04161 1.83413 1.40025 1.83296L3.54782 1.82597C3.86367 1.82494 4.13824 2.02541 4.22311 2.32717L6.82367 12.1051C7.05845 12.9703 7.8599 13.5718 8.7869 13.5688L17.1881 13.5415C18.1143 13.5384 18.934 12.9317 19.1418 12.065L20.7009 5.85791C20.8463 5.29269 20.7184 4.68903 20.3164 4.22706V4.227ZM19.416 5.57886L17.8569 11.786C17.774 12.0883 17.5008 12.2905 17.1849 12.2916L8.78285 12.3189C8.467 12.3199 8.19244 12.1195 8.10757 11.8177L6.25293 4.79674L18.7398 4.7561C18.9504 4.75542 19.1613 4.85541 19.2885 5.01624C19.4148 5.17629 19.478 5.37744 19.4161 5.579L19.416 5.57886Z" fill="#43464E"/>
<path d="M9.23247 14.3711C8.03241 14.375 7.04608 15.3244 7.04982 16.4719C7.05355 17.6194 8.04612 18.5624 9.2461 18.5585C10.4462 18.5554 11.4325 17.606 11.4288 16.4583C11.425 15.3106 10.4325 14.367 9.23247 14.3709V14.3711ZM9.24198 17.2908C8.75751 17.2923 8.37714 16.931 8.37563 16.4677C8.37412 16.0044 8.75213 15.6406 9.23661 15.639C9.72108 15.6374 10.1015 15.9988 10.103 16.4621C10.1036 16.9057 9.70508 17.2893 9.24198 17.2908Z" fill="#43464E"/>
<path d="M16.4756 14.3474C15.2756 14.3513 14.2892 15.3007 14.293 16.4482C14.2967 17.5957 15.2893 18.5387 16.4893 18.5348C17.6893 18.5309 18.6757 17.5814 18.6719 16.4339C18.6476 15.2872 17.6756 14.3435 16.4756 14.3474ZM16.4851 17.267C16.0007 17.2686 15.6203 16.9072 15.6188 16.444C15.6173 15.9807 15.9953 15.6168 16.4798 15.6153C16.9642 15.6137 17.3446 15.9751 17.3461 16.4383C17.3476 16.8819 16.9482 17.2655 16.4851 17.267Z" fill="#43464E"/>
</svg>
