<svg width="42" height="42" viewBox="0 0 42 42" fill="none" xmlns="http://www.w3.org/2000/svg">
<g clip-path="url(#clip0_150_359)">
<path d="M34.1897 28.965C34.218 29.2833 33.9704 29.5577 33.6541 29.5588L7.63888 29.6434C7.32337 29.6445 7.07429 29.373 7.09929 29.0551L8.88956 6.29486C8.91184 6.01214 9.1449 5.79387 9.42575 5.79296L31.6345 5.72068C31.9145 5.71977 32.1487 5.93542 32.1736 6.21718L34.1897 28.965Z" fill="#1DCF65"/>
<path d="M36.2856 34.895C36.3194 35.2921 36.0102 35.6335 35.6159 35.6348L5.78371 35.7319C5.39023 35.7331 5.07915 35.3954 5.10902 34.9988L7.16198 7.73546C7.18875 7.3809 7.48044 7.10697 7.83224 7.10583L33.2918 7.02297C33.6428 7.02182 33.936 7.29276 33.966 7.64604L36.2856 34.895Z" fill="url(#paint0_linear_150_359)"/>
<path d="M20.0843 27.0417C16.2013 27.0543 13.03 23.2325 13.0146 18.5222C13.0138 18.2769 13.21 18.0772 13.4529 18.0764C13.6959 18.0757 13.8933 18.2739 13.8941 18.5193C13.9079 22.7397 16.6835 26.1642 20.0815 26.1531C23.4796 26.1421 26.2329 22.6996 26.2191 18.4792C26.2183 18.2339 26.4145 18.0343 26.6574 18.0335C26.9004 18.0327 27.0978 18.2309 27.0986 18.4763C27.1138 23.1867 23.9673 27.0291 20.0843 27.0417Z" fill="white"/>
<path d="M24.3908 18.366C24.2783 18.3664 24.1656 18.3234 24.0794 18.2369C23.9071 18.0639 23.9062 17.7826 24.0774 17.6086L26.3487 15.2988C26.4309 15.2153 26.5426 15.168 26.6592 15.1677C26.7759 15.1673 26.8879 15.2137 26.9706 15.2968L29.2346 17.5695C29.4069 17.7424 29.4078 18.0237 29.2366 18.1977C29.0655 18.3716 28.7871 18.3727 28.6148 18.1998L26.6626 16.2403L24.7013 18.2348C24.6156 18.3219 24.5033 18.3656 24.3908 18.366Z" fill="white"/>
</g>
<defs>
<linearGradient id="paint0_linear_150_359" x1="30.0495" y1="31.6476" x2="11.6198" y2="10.2746" gradientUnits="userSpaceOnUse">
<stop stop-color="#52D67A"/>
<stop offset="1" stop-color="#5AEE87"/>
</linearGradient>
<clipPath id="clip0_150_359">
<rect width="31.16" height="30.176" fill="white" transform="translate(5.01196 5.80737) rotate(-0.18647)"/>
</clipPath>
</defs>
</svg>
